<svg width="248" height="291" viewBox="0 0 248 291" fill="none" xmlns="http://www.w3.org/2000/svg">
<path fill-rule="evenodd" clip-rule="evenodd" d="M85.34 120.66H113.12C114.232 120.722 115.298 121.125 116.172 121.817C117.045 122.508 117.684 123.452 118 124.52L122.57 141.81C122.732 142.255 122.782 142.733 122.715 143.202C122.647 143.671 122.465 144.116 122.183 144.497C121.902 144.879 121.531 145.184 121.103 145.387C120.675 145.59 120.203 145.684 119.73 145.66H92C90.8886 145.601 89.8229 145.199 88.9491 144.509C88.0754 143.82 87.4364 142.877 87.12 141.81L82.5 124.52C82.3382 124.074 82.2889 123.596 82.3564 123.127C82.424 122.657 82.6063 122.212 82.8873 121.83C83.1682 121.448 83.5391 121.142 83.9669 120.938C84.3948 120.733 84.8664 120.638 85.34 120.66V120.66Z" fill="black"/>
<path d="M85.34 120.66H113.12C114.232 120.722 115.298 121.125 116.172 121.817C117.045 122.508 117.684 123.452 118 124.52L122.57 141.81C122.732 142.255 122.782 142.733 122.715 143.202C122.647 143.671 122.465 144.116 122.183 144.497C121.902 144.879 121.531 145.184 121.103 145.387C120.675 145.59 120.203 145.684 119.73 145.66H92C90.8886 145.601 89.8229 145.199 88.9491 144.509C88.0754 143.82 87.4364 142.877 87.12 141.81L82.5 124.52C82.3382 124.074 82.2889 123.596 82.3564 123.127C82.424 122.657 82.6063 122.212 82.8873 121.83C83.1682 121.448 83.5391 121.142 83.9669 120.938C84.3948 120.733 84.8664 120.638 85.34 120.66V120.66Z" stroke="black" stroke-width="0.57" stroke-miterlimit="22.93" stroke-linecap="round"/>
<path d="M116.04 145.41H90.9C89.9722 145.41 89.22 146.162 89.22 147.09C89.22 148.018 89.9722 148.77 90.9 148.77H116.04C116.968 148.77 117.72 148.018 117.72 147.09C117.72 146.162 116.968 145.41 116.04 145.41Z" fill="#FBCFE8"/>
<path d="M116.04 145.41H90.9C89.9722 145.41 89.22 146.162 89.22 147.09C89.22 148.018 89.9722 148.77 90.9 148.77H116.04C116.968 148.77 117.72 148.018 117.72 147.09C117.72 146.162 116.968 145.41 116.04 145.41Z" stroke="black" stroke-width="0.57" stroke-miterlimit="22.93" stroke-linecap="round"/>
<path d="M108.29 145.41H90.9C89.9722 145.41 89.22 146.162 89.22 147.09C89.22 148.018 89.9722 148.77 90.9 148.77H108.29C109.218 148.77 109.97 148.018 109.97 147.09C109.97 146.162 109.218 145.41 108.29 145.41Z" fill="#FBCFE8"/>
<path d="M108.29 145.41H90.9C89.9722 145.41 89.22 146.162 89.22 147.09C89.22 148.018 89.9722 148.77 90.9 148.77H108.29C109.218 148.77 109.97 148.018 109.97 147.09C109.97 146.162 109.218 145.41 108.29 145.41Z" stroke="black" stroke-width="0.57" stroke-miterlimit="22.93" stroke-linecap="round"/>
<path fill-rule="evenodd" clip-rule="evenodd" d="M107 206.08H128C128.167 206.087 128.326 206.157 128.444 206.276C128.563 206.394 128.633 206.553 128.64 206.72L129.59 220.88H96C95.37 214.95 99.71 213.15 104.84 210.61C106.79 209.14 107 206.08 107 206.08Z" fill="#FBCFE8"/>
<path d="M107 206.08H128C128.167 206.087 128.326 206.157 128.444 206.276C128.563 206.394 128.633 206.553 128.64 206.72L129.59 220.88H96C95.37 214.95 99.71 213.15 104.84 210.61C106.79 209.14 107 206.08 107 206.08Z" stroke="black" stroke-width="0.57" stroke-linecap="round" stroke-linejoin="round"/>
<path d="M129.94 218.62H95.96C95.6065 218.62 95.32 218.907 95.32 219.26V222.29C95.32 222.643 95.6065 222.93 95.96 222.93H129.94C130.293 222.93 130.58 222.643 130.58 222.29V219.26C130.58 218.907 130.293 218.62 129.94 218.62Z" fill="#FBCFE8"/>
<path d="M129.94 218.62H95.96C95.6065 218.62 95.32 218.907 95.32 219.26V222.29C95.32 222.643 95.6065 222.93 95.96 222.93H129.94C130.293 222.93 130.58 222.643 130.58 222.29V219.26C130.58 218.907 130.293 218.62 129.94 218.62Z" stroke="black" stroke-width="0.57" stroke-linecap="round" stroke-linejoin="round"/>
<path fill-rule="evenodd" clip-rule="evenodd" d="M106.53 206.38L106.09 208.15C111.648 207.252 117.255 206.681 122.88 206.44L106.53 206.38Z" fill="black"/>
<path d="M106.53 206.38L106.09 208.15C111.648 207.252 117.255 206.681 122.88 206.44L106.53 206.38Z" stroke="black" stroke-width="0.57" stroke-miterlimit="22.93" stroke-linecap="round"/>
<path fill-rule="evenodd" clip-rule="evenodd" d="M90.05 206.12H111.05C111.218 206.125 111.378 206.194 111.497 206.313C111.616 206.432 111.685 206.592 111.69 206.76L112.69 220.92H79.07C78.44 214.99 82.78 213.19 87.9 210.65C89.89 209.18 90.05 206.12 90.05 206.12Z" fill="#FBCFE8"/>
<path d="M90.05 206.12H111.05C111.218 206.125 111.378 206.194 111.497 206.313C111.616 206.432 111.685 206.592 111.69 206.76L112.69 220.92H79.07C78.44 214.99 82.78 213.19 87.9 210.65C89.89 209.18 90.05 206.12 90.05 206.12Z" stroke="black" stroke-width="0.57" stroke-linecap="round" stroke-linejoin="round"/>
<path d="M113.05 218.65H79.07C78.7165 218.65 78.43 218.937 78.43 219.29V222.32C78.43 222.673 78.7165 222.96 79.07 222.96H113.05C113.403 222.96 113.69 222.673 113.69 222.32V219.29C113.69 218.937 113.403 218.65 113.05 218.65Z" fill="#FBCFE8"/>
<path d="M113.05 218.65H79.07C78.7165 218.65 78.43 218.937 78.43 219.29V222.32C78.43 222.673 78.7165 222.96 79.07 222.96H113.05C113.403 222.96 113.69 222.673 113.69 222.32V219.29C113.69 218.937 113.403 218.65 113.05 218.65Z" stroke="black" stroke-width="0.57" stroke-linecap="round" stroke-linejoin="round"/>
<path fill-rule="evenodd" clip-rule="evenodd" d="M90.34 206.42L89.9 208.18C95.4598 207.295 101.066 206.727 106.69 206.48L90.34 206.42Z" fill="black"/>
<path d="M90.34 206.42L89.9 208.18C95.4598 207.295 101.066 206.727 106.69 206.48L90.34 206.42Z" stroke="black" stroke-width="0.57" stroke-miterlimit="22.93" stroke-linecap="round"/>
<path fill-rule="evenodd" clip-rule="evenodd" d="M127.78 81.8C127.78 90.35 127.78 90.21 127.78 98.8C127.93 119.91 115.41 120.33 116.86 149.43C117.07 153.68 120.54 153.15 121.19 158.86C125.99 160.03 138.84 155.34 143.64 156.5C148.43 155.34 160.3 164.93 165.09 163.76C166.38 158.12 167.95 154.76 167.91 150.32C167.72 123.32 156.52 116.6 156.54 100.32V81.86C156.57 62.86 127.81 63.51 127.78 81.8Z" fill="#FBCFE8"/>
<path d="M127.78 81.8C127.78 90.35 127.78 90.21 127.78 98.8C127.93 119.91 115.41 120.33 116.86 149.43C117.07 153.68 120.54 153.15 121.19 158.86C125.99 160.03 138.84 155.34 143.64 156.5C148.43 155.34 160.3 164.93 165.09 163.76C166.38 158.12 167.95 154.76 167.91 150.32C167.72 123.32 156.52 116.6 156.54 100.32V81.86C156.57 62.86 127.81 63.51 127.78 81.8Z" stroke="black" stroke-width="0.57" stroke-linecap="round" stroke-linejoin="round"/>
<path fill-rule="evenodd" clip-rule="evenodd" d="M110.81 148.77C102.47 149.26 88.27 152.85 88.89 172.47C88.89 191.62 88.81 205.42 88.89 206.41C88.1 206.66 128.64 206.61 128.64 206.61C128.64 206.61 128.35 183.97 128.48 179.56C128.59 175.85 128.77 172.84 134.03 172.86C134.96 172.86 146.67 172.86 147.65 172.92C155.73 173.22 169.85 173.92 169.59 157.92C169.59 155.52 168.84 153.13 167.84 149.48C167.815 149.237 167.815 148.993 167.84 148.75H121.36C118.06 148.77 114 148.59 110.81 148.77Z" fill="#FBCFE8"/>
<path d="M110.81 148.77C102.47 149.26 88.27 152.85 88.89 172.47C88.89 191.62 88.81 205.42 88.89 206.41C88.1 206.66 128.64 206.61 128.64 206.61C128.64 206.61 128.35 183.97 128.48 179.56C128.59 175.85 128.77 172.84 134.03 172.86C134.96 172.86 146.67 172.86 147.65 172.92C155.73 173.22 169.85 173.92 169.59 157.92C169.59 155.52 168.84 153.13 167.84 149.48C167.815 149.237 167.815 148.993 167.84 148.75H121.36C118.06 148.77 114 148.59 110.81 148.77Z" stroke="black" stroke-width="0.57" stroke-linecap="round" stroke-linejoin="round"/>
<path fill-rule="evenodd" clip-rule="evenodd" d="M128.91 91.77C129.243 91.772 129.568 91.6751 129.846 91.4917C130.124 91.3084 130.341 91.0467 130.469 90.7399C130.598 90.4331 130.633 90.095 130.569 89.7684C130.505 89.4419 130.346 89.1416 130.111 88.9056C129.877 88.6697 129.578 88.5087 129.251 88.443C128.925 88.3774 128.587 88.4101 128.279 88.5369C127.972 88.6638 127.709 88.8791 127.524 89.1556C127.339 89.4321 127.24 89.7573 127.24 90.09C127.24 90.5338 127.416 90.9596 127.729 91.2744C128.041 91.5892 128.466 91.7674 128.91 91.77Z" fill="white"/>
<path d="M128.91 91.77C129.243 91.772 129.568 91.6751 129.846 91.4917C130.124 91.3084 130.341 91.0467 130.469 90.7399C130.598 90.4331 130.633 90.095 130.569 89.7684C130.505 89.4419 130.346 89.1416 130.111 88.9056C129.877 88.6697 129.578 88.5087 129.251 88.443C128.925 88.3774 128.587 88.4101 128.279 88.5369C127.972 88.6638 127.709 88.8791 127.524 89.1556C127.339 89.4321 127.24 89.7573 127.24 90.09C127.24 90.5338 127.416 90.9596 127.729 91.2744C128.041 91.5892 128.466 91.7674 128.91 91.77Z" stroke="black" stroke-width="0.57" stroke-linecap="round" stroke-linejoin="round"/>
<path d="M144 172.88C152.12 172.66 155 166.27 154.8 159.39" stroke="black" stroke-width="0.57" stroke-linecap="round" stroke-linejoin="round"/>
<path d="M129.44 84.18C128.949 83.7267 128.332 83.4337 127.67 83.34" stroke="black" stroke-width="0.57" stroke-miterlimit="22.93" stroke-linecap="round"/>
<path fill-rule="evenodd" clip-rule="evenodd" d="M156.27 103.69H127.77C127.24 103.69 126.731 103.901 126.356 104.276C125.981 104.651 125.77 105.16 125.77 105.69C125.77 106.22 125.981 106.729 126.356 107.104C126.731 107.479 127.24 107.69 127.77 107.69H156.27C156.8 107.69 157.309 107.479 157.684 107.104C158.059 106.729 158.27 106.22 158.27 105.69C158.27 105.16 158.059 104.651 157.684 104.276C157.309 103.901 156.8 103.69 156.27 103.69Z" fill="#FBCFE8"/>
<path d="M156.27 103.69H127.77C127.24 103.69 126.731 103.901 126.356 104.276C125.981 104.651 125.77 105.16 125.77 105.69C125.77 106.22 125.981 106.729 126.356 107.104C126.731 107.479 127.24 107.69 127.77 107.69H156.27C156.8 107.69 157.309 107.479 157.684 107.104C158.059 106.729 158.27 106.22 158.27 105.69C158.27 105.16 158.059 104.651 157.684 104.276C157.309 103.901 156.8 103.69 156.27 103.69Z" stroke="black" stroke-width="0.57" stroke-miterlimit="22.93" stroke-linecap="round"/>
<path d="M156.54 80.14H112.7" stroke="black" stroke-width="0.57" stroke-miterlimit="22.93" stroke-linecap="round"/>
<path fill-rule="evenodd" clip-rule="evenodd" d="M127.14 107.71L126.7 109.48C132.258 108.582 137.865 108.015 143.49 107.78L127.14 107.71Z" fill="black"/>
<path d="M127.14 107.71L126.7 109.48C132.258 108.582 137.865 108.015 143.49 107.78L127.14 107.71Z" stroke="black" stroke-width="0.57" stroke-miterlimit="22.93" stroke-linecap="round"/>
<path fill-rule="evenodd" clip-rule="evenodd" d="M128.23 80.07L127.79 81.84C133.348 80.9417 138.955 80.374 144.58 80.14L128.23 80.07Z" fill="black"/>
<path d="M128.23 80.07L127.79 81.84C133.348 80.9417 138.955 80.374 144.58 80.14L128.23 80.07Z" stroke="black" stroke-width="0.57" stroke-miterlimit="22.93" stroke-linecap="round"/>
<path fill-rule="evenodd" clip-rule="evenodd" d="M130.3 98.24C127.59 96.64 129.99 94.01 131.68 95.84C131.94 96.13 131 97.88 130.3 98.24Z" fill="#FBCFE8"/>
<path d="M130.3 98.24C127.59 96.64 129.99 94.01 131.68 95.84C131.94 96.13 131 97.88 130.3 98.24Z" stroke="black" stroke-width="0.57" stroke-miterlimit="22.93" stroke-linecap="round"/>
<path fill-rule="evenodd" clip-rule="evenodd" d="M127.74 90.4C127.714 90.4 127.689 90.4052 127.665 90.4154C127.641 90.4255 127.62 90.4404 127.602 90.4591C127.584 90.4779 127.57 90.5 127.561 90.5242C127.553 90.5484 127.549 90.5742 127.55 90.6C127.55 90.6504 127.57 90.6987 127.606 90.7344C127.641 90.77 127.69 90.79 127.74 90.79C127.79 90.7876 127.837 90.7668 127.872 90.7317C127.907 90.6965 127.928 90.6496 127.93 90.6C127.93 90.5486 127.91 90.4992 127.875 90.462C127.84 90.4248 127.791 90.4026 127.74 90.4V90.4Z" fill="black"/>
<path d="M127.74 90.4C127.714 90.4 127.689 90.4052 127.665 90.4154C127.641 90.4255 127.62 90.4404 127.602 90.4591C127.584 90.4779 127.57 90.5 127.561 90.5242C127.553 90.5484 127.549 90.5742 127.55 90.6C127.55 90.6504 127.57 90.6987 127.606 90.7344C127.641 90.77 127.69 90.79 127.74 90.79C127.79 90.7876 127.837 90.7668 127.872 90.7317C127.907 90.6965 127.928 90.6496 127.93 90.6C127.93 90.5486 127.91 90.4992 127.875 90.462C127.84 90.4248 127.791 90.4026 127.74 90.4V90.4Z" stroke="black" stroke-width="0.57" stroke-linecap="round" stroke-linejoin="round"/>
<path d="M127.75 99.56C128.64 99.56 129.98 98.56 130.86 97.73" stroke="black" stroke-width="0.57" stroke-miterlimit="22.93" stroke-linecap="round"/>
<path d="M112.34 206.4V176.23C112.34 174.5 112.9 173.14 114.94 172.98L134.01 172.86" stroke="black" stroke-width="0.57" stroke-miterlimit="22.93" stroke-linecap="round"/>
<path d="M160.16 172.92H128.05C125.134 172.92 122.77 175.284 122.77 178.2C122.77 181.116 125.134 183.48 128.05 183.48H160.16C163.076 183.48 165.44 181.116 165.44 178.2C165.44 175.284 163.076 172.92 160.16 172.92Z" fill="black"/>
<path d="M160.16 172.92H128.05C125.134 172.92 122.77 175.284 122.77 178.2C122.77 181.116 125.134 183.48 128.05 183.48H160.16C163.076 183.48 165.44 181.116 165.44 178.2C165.44 175.284 163.076 172.92 160.16 172.92Z" stroke="black" stroke-width="0.57" stroke-miterlimit="22.93" stroke-linecap="round"/>
<path fill-rule="evenodd" clip-rule="evenodd" d="M142.71 176.42C143.341 176.67 143.848 177.159 144.119 177.781C144.391 178.403 144.406 179.107 144.16 179.74L128 221.08C127.752 221.713 127.263 222.221 126.64 222.493C126.018 222.765 125.313 222.778 124.68 222.53C124.047 222.282 123.539 221.793 123.267 221.17C122.995 220.548 122.982 219.843 123.23 219.21L139.36 177.88C139.483 177.563 139.667 177.273 139.902 177.028C140.137 176.783 140.419 176.587 140.73 176.451C141.042 176.315 141.377 176.242 141.717 176.237C142.057 176.232 142.394 176.294 142.71 176.42Z" fill="black"/>
<path d="M142.71 176.42C143.341 176.67 143.848 177.159 144.119 177.781C144.391 178.403 144.406 179.107 144.16 179.74L128 221.08C127.752 221.713 127.263 222.221 126.64 222.493C126.018 222.765 125.313 222.778 124.68 222.53C124.047 222.282 123.539 221.793 123.267 221.17C122.995 220.548 122.982 219.843 123.23 219.21L139.36 177.88C139.483 177.563 139.667 177.273 139.902 177.028C140.137 176.783 140.419 176.587 140.73 176.451C141.042 176.315 141.377 176.242 141.717 176.237C142.057 176.232 142.394 176.294 142.71 176.42Z" stroke="black" stroke-width="0.57" stroke-miterlimit="22.93" stroke-linecap="round"/>
<path fill-rule="evenodd" clip-rule="evenodd" d="M146.34 176.42C145.707 176.668 145.198 177.156 144.924 177.779C144.651 178.401 144.635 179.106 144.88 179.74L161 221.08C161.248 221.713 161.737 222.221 162.36 222.493C162.982 222.765 163.687 222.778 164.32 222.53C164.953 222.282 165.461 221.793 165.733 221.17C166.005 220.548 166.018 219.843 165.77 219.21L149.63 177.88C149.384 177.253 148.901 176.747 148.285 176.474C147.669 176.201 146.97 176.181 146.34 176.42V176.42Z" fill="black"/>
<path d="M146.34 176.42C145.707 176.668 145.198 177.156 144.924 177.779C144.651 178.401 144.635 179.106 144.88 179.74L161 221.08C161.248 221.713 161.737 222.221 162.36 222.493C162.982 222.765 163.687 222.778 164.32 222.53C164.953 222.282 165.461 221.793 165.733 221.17C166.005 220.548 166.018 219.843 165.77 219.21L149.63 177.88C149.384 177.253 148.901 176.747 148.285 176.474C147.669 176.201 146.97 176.181 146.34 176.42V176.42Z" stroke="black" stroke-width="0.57" stroke-miterlimit="22.93" stroke-linecap="round"/>
<path fill-rule="evenodd" clip-rule="evenodd" d="M144.24 173.66C144.919 173.665 145.569 173.938 146.048 174.419C146.527 174.9 146.797 175.551 146.8 176.23L146.75 220.61C146.772 220.96 146.722 221.311 146.603 221.642C146.484 221.972 146.298 222.274 146.058 222.53C145.818 222.786 145.528 222.99 145.205 223.129C144.883 223.268 144.536 223.34 144.185 223.34C143.834 223.34 143.487 223.268 143.165 223.129C142.842 222.99 142.552 222.786 142.312 222.53C142.072 222.274 141.886 221.972 141.767 221.642C141.648 221.311 141.598 220.96 141.62 220.61V176.23C141.621 175.889 141.69 175.551 141.823 175.236C141.956 174.922 142.15 174.637 142.393 174.398C142.637 174.159 142.926 173.971 143.243 173.844C143.56 173.717 143.899 173.655 144.24 173.66V173.66Z" fill="black"/>
<path d="M144.24 173.66C144.919 173.665 145.569 173.938 146.048 174.419C146.527 174.9 146.797 175.551 146.8 176.23L146.75 220.61C146.772 220.96 146.722 221.311 146.603 221.642C146.484 221.972 146.298 222.274 146.058 222.53C145.818 222.786 145.528 222.99 145.205 223.129C144.883 223.268 144.536 223.34 144.185 223.34C143.834 223.34 143.487 223.268 143.165 223.129C142.842 222.99 142.552 222.786 142.312 222.53C142.072 222.274 141.886 221.972 141.767 221.642C141.648 221.311 141.598 220.96 141.62 220.61V176.23C141.621 175.889 141.69 175.551 141.823 175.236C141.956 174.922 142.15 174.637 142.393 174.398C142.637 174.159 142.926 173.971 143.243 173.844C143.56 173.717 143.899 173.655 144.24 173.66V173.66Z" stroke="black" stroke-width="0.57" stroke-miterlimit="22.93" stroke-linecap="round"/>
<path fill-rule="evenodd" clip-rule="evenodd" d="M135.45 122C140.76 113.51 129.79 108.7 126.22 114.47C122.71 119.41 120.84 124.07 116.22 128.35C115 129.48 104.69 133.56 101.68 134.51C98.96 135.36 96.81 139.12 96.46 142.58C96.19 145.27 98.59 146.02 100.06 143.94C100.06 145.4 101.61 145.61 102.62 145.09C103.209 144.643 103.685 144.064 104.01 143.4C104.01 143.51 103.57 145.4 105.21 145.29C106.85 145.18 107 143.4 107.66 143.29C110.073 142.786 112.448 142.118 114.77 141.29C122.04 138.78 127.77 137.29 131.29 129.98C131.74 129.05 134.79 122.92 135.42 121.98" fill="#FBCFE8"/>
<path d="M125 114.2C122.5 119.59 120.84 123.83 116.25 128.1C115.03 129.24 104.72 133.32 101.71 134.26C98.99 135.11 96.84 139.16 96.49 142.62C96.22 145.31 98.62 146.06 100.09 143.98C100.09 145.44 101.64 145.65 102.65 145.13C103.239 144.683 103.715 144.104 104.04 143.44C104.04 143.55 103.6 145.44 105.24 145.33C106.88 145.22 107.03 143.44 107.69 143.33C110.103 142.826 112.478 142.158 114.8 141.33C122.07 138.82 127.8 137.33 131.32 130.02C131.77 129.09 134.82 122.96 135.45 122.02" stroke="black" stroke-width="0.57" stroke-miterlimit="22.93" stroke-linecap="round"/>
<path d="M100 144.05C100.46 143.12 100.85 141.71 101.75 141.05" stroke="black" stroke-width="0.57" stroke-miterlimit="22.93" stroke-linecap="round"/>
<path d="M104.37 141.49C105.133 142.067 106.004 142.485 106.932 142.718C107.86 142.952 108.825 142.997 109.77 142.85" stroke="black" stroke-width="0.57" stroke-miterlimit="22.93" stroke-linecap="round"/>
<path fill-rule="evenodd" clip-rule="evenodd" d="M117 142.41C117.84 142.52 124.69 137.8 125.71 136.83C126.21 136.35 127.9 134.95 125.78 136.57C123.037 138.44 120.026 139.883 116.85 140.85C116.805 141.346 116.805 141.844 116.85 142.34L117 142.41Z" fill="black"/>
<path d="M117 142.41C117.84 142.52 124.69 137.8 125.71 136.83C126.21 136.35 127.9 134.95 125.78 136.57C123.037 138.44 120.026 139.883 116.85 140.85C116.805 141.346 116.805 141.844 116.85 142.34L117 142.41Z" stroke="black" stroke-width="0.57" stroke-miterlimit="22.93" stroke-linecap="round"/>
</svg>
