<svg width="248" height="291" viewBox="0 0 248 291" fill="none" xmlns="http://www.w3.org/2000/svg">
<path fill-rule="evenodd" clip-rule="evenodd" d="M124.66 196.52C124.28 196.42 129.73 200.21 130.22 201.89C130.28 202.226 130.268 202.572 130.185 202.903C130.102 203.235 129.949 203.545 129.738 203.813C129.526 204.081 129.26 204.302 128.957 204.46C128.654 204.618 128.321 204.71 127.98 204.73C127.42 204.8 127.04 206.1 126.24 206.29C125.44 206.48 123.78 205.35 123.71 205.47C122.71 207.06 117.86 201.81 117.61 196.69C117.48 194.12 118.29 184.62 118.67 181.07C120.67 163.07 125.67 121.94 137.75 107.56C138.75 106.35 139.5 108.09 140.33 108.28C141.64 108.59 142.84 109.4 144.2 113.93C145.63 118.72 143.64 130.24 139.57 132.93C136.13 150.35 127.4 177.35 133.43 195.68C134.07 197.68 132.27 199.68 130.76 199.03C129.76 198.6 128.95 197.59 127.84 194.23C127.56 193.4 125.95 190.12 125.36 189.84C124 189.1 124.36 194.56 124.66 196.56" fill="#FBCFE8"/>
<path d="M128 204.73C130.72 204.87 131.07 201.45 128.9 199.84C126.1 197.76 124.44 197.11 124.19 192.47" stroke="black" stroke-width="0.57" stroke-linecap="round" stroke-linejoin="round"/>
<path d="M124 195.37C123.998 197.507 124.448 199.619 125.32 201.57C126.7 204.86 122.13 208.57 119.03 201.42C117.72 198.42 117.45 194.42 117.79 188.6C118.85 177.95 123.87 127.11 136.79 108.6" stroke="black" stroke-width="0.57" stroke-linecap="round" stroke-linejoin="round"/>
<path d="M124.06 196.52C123.79 194.52 124.25 189.06 125.61 189.8C126.2 190.08 127.53 193.35 127.8 194.19C128.92 197.55 129.46 198.54 130.44 198.99C132.87 200.11 134.07 197.67 133.54 195.99C131.742 190.79 130.945 185.297 131.19 179.8C131.61 164.94 136.11 147.33 138.97 132.87" stroke="black" stroke-width="0.57" stroke-linecap="round" stroke-linejoin="round"/>
<path d="M126.29 190.72C125.88 189.72 124.97 188.28 123.58 189.67" stroke="black" stroke-width="0.57" stroke-linecap="round" stroke-linejoin="round"/>
<path d="M123.71 205.47C127.23 208.01 129.23 204.24 127.26 201.84C125.05 199.14 123.99 197.57 124.05 193.64" stroke="black" stroke-width="0.57" stroke-linecap="round" stroke-linejoin="round"/>
<path fill-rule="evenodd" clip-rule="evenodd" d="M131.34 241.43H152.34C152.508 241.435 152.668 241.504 152.787 241.623C152.906 241.742 152.975 241.902 152.98 242.07L153.98 256.23H120.35C119.72 250.3 124.06 248.51 129.18 245.96C131.18 244.49 131.34 241.43 131.34 241.43Z" fill="#FBCFE8"/>
<path d="M131.34 241.43H152.34C152.508 241.435 152.668 241.504 152.787 241.623C152.906 241.742 152.975 241.902 152.98 242.07L153.98 256.23H120.35C119.72 250.3 124.06 248.51 129.18 245.96C131.18 244.49 131.34 241.43 131.34 241.43Z" stroke="black" stroke-width="0.57" stroke-linecap="round" stroke-linejoin="round"/>
<path d="M154.33 253.97H120.35C119.997 253.97 119.71 254.257 119.71 254.61V257.64C119.71 257.993 119.997 258.28 120.35 258.28H154.33C154.683 258.28 154.97 257.993 154.97 257.64V254.61C154.97 254.257 154.683 253.97 154.33 253.97Z" fill="#FBCFE8"/>
<path d="M154.33 253.97H120.35C119.997 253.97 119.71 254.257 119.71 254.61V257.64C119.71 257.993 119.997 258.28 120.35 258.28H154.33C154.683 258.28 154.97 257.993 154.97 257.64V254.61C154.97 254.257 154.683 253.97 154.33 253.97Z" stroke="black" stroke-width="0.57" stroke-linecap="round" stroke-linejoin="round"/>
<path fill-rule="evenodd" clip-rule="evenodd" d="M152 241.43H173C173.168 241.435 173.328 241.504 173.447 241.623C173.566 241.742 173.635 241.902 173.64 242.07L174.64 256.23H141C140.37 250.3 144.71 248.51 149.83 245.96C151.86 244.49 152 241.43 152 241.43Z" fill="#FBCFE8"/>
<path d="M152 241.43H173C173.168 241.435 173.328 241.504 173.447 241.623C173.566 241.742 173.635 241.902 173.64 242.07L174.64 256.23H141C140.37 250.3 144.71 248.51 149.83 245.96C151.86 244.49 152 241.43 152 241.43Z" stroke="black" stroke-width="0.57" stroke-linecap="round" stroke-linejoin="round"/>
<path d="M175.01 253.97H141.03C140.677 253.97 140.39 254.257 140.39 254.61V257.64C140.39 257.993 140.677 258.28 141.03 258.28H175.01C175.363 258.28 175.65 257.993 175.65 257.64V254.61C175.65 254.257 175.363 253.97 175.01 253.97Z" fill="#FBCFE8"/>
<path d="M175.01 253.97H141.03C140.677 253.97 140.39 254.257 140.39 254.61V257.64C140.39 257.993 140.677 258.28 141.03 258.28H175.01C175.363 258.28 175.65 257.993 175.65 257.64V254.61C175.65 254.257 175.363 253.97 175.01 253.97Z" stroke="black" stroke-width="0.57" stroke-linecap="round" stroke-linejoin="round"/>
<path fill-rule="evenodd" clip-rule="evenodd" d="M137.25 80.81C137.25 89.37 137.25 89.22 137.25 97.81C137.25 120.42 126.97 125.19 126.33 148.44C126.21 152.69 130.01 152.16 130.66 157.87C135.46 159.04 148.31 154.35 153.11 155.51C157.89 154.35 170.53 163.85 175.32 162.68C183.7 125.7 166 118.51 166 99.27V80.81C166 61.87 137.27 62.52 137.25 80.81Z" fill="#FBCFE8"/>
<path d="M137.25 80.81C137.25 89.37 137.25 89.22 137.25 97.81C137.25 120.42 126.97 125.19 126.33 148.44C126.21 152.69 130.01 152.16 130.66 157.87C135.46 159.04 148.31 154.35 153.11 155.51C157.89 154.35 170.53 163.85 175.32 162.68C183.7 125.7 166 118.51 166 99.27V80.81C166 61.87 137.27 62.52 137.25 80.81Z" stroke="black" stroke-width="0.57" stroke-linecap="round" stroke-linejoin="round"/>
<path fill-rule="evenodd" clip-rule="evenodd" d="M137.25 80.81C137.25 89.37 137.25 89.22 137.25 97.81C137.258 100.326 137.118 102.84 136.83 105.34H166.6C166.211 103.364 166.013 101.354 166.01 99.34V80.88C166 61.87 137.27 62.52 137.25 80.81Z" fill="#FBCFE8"/>
<path d="M137.25 80.81C137.25 89.37 137.25 89.22 137.25 97.81C137.258 100.326 137.118 102.84 136.83 105.34H166.6C166.211 103.364 166.013 101.354 166.01 99.34V80.88C166 61.87 137.27 62.52 137.25 80.81Z" stroke="black" stroke-width="0.57" stroke-linecap="round" stroke-linejoin="round"/>
<path fill-rule="evenodd" clip-rule="evenodd" d="M165.94 79.3C164.52 62.42 138.84 62.97 137.32 79.3H165.94Z" fill="#FBCFE8"/>
<path d="M165.94 79.3C164.52 62.42 138.84 62.97 137.32 79.3H165.94Z" stroke="black" stroke-width="0.57" stroke-linecap="round" stroke-linejoin="round"/>
<path fill-rule="evenodd" clip-rule="evenodd" d="M177.26 147.78C177.26 147.99 177.26 148.2 177.31 148.4C177.49 158.07 174.37 163.4 174.39 172.23C174.45 191.38 174.97 240.62 174.91 241.61H130.16C130.16 241.61 129.77 191.51 130.04 172.73C130.19 162.73 127.29 159.86 126.21 148.51C126.195 148.267 126.195 148.023 126.21 147.78H177.26Z" fill="#FBCFE8"/>
<path d="M177.26 147.78C177.26 147.99 177.26 148.2 177.31 148.4C177.49 158.07 174.37 163.4 174.39 172.23C174.45 191.38 174.97 240.62 174.91 241.61H130.16C130.16 241.61 129.77 191.51 130.04 172.73C130.19 162.73 127.29 159.86 126.21 148.51C126.195 148.267 126.195 148.023 126.21 147.78H177.26Z" stroke="black" stroke-width="0.57" stroke-linecap="round" stroke-linejoin="round"/>
<path fill-rule="evenodd" clip-rule="evenodd" d="M138.52 90.78C138.853 90.782 139.178 90.6851 139.456 90.5017C139.734 90.3183 139.951 90.0567 140.079 89.7499C140.208 89.4431 140.243 89.105 140.179 88.7784C140.115 88.4519 139.956 88.1516 139.721 87.9156C139.487 87.6797 139.188 87.5187 138.861 87.453C138.535 87.3874 138.197 87.4201 137.889 87.547C137.582 87.6738 137.319 87.8891 137.134 88.1656C136.949 88.4421 136.85 88.7673 136.85 89.1C136.849 89.3201 136.891 89.5384 136.974 89.7421C137.058 89.9459 137.18 90.1312 137.336 90.2873C137.491 90.4435 137.675 90.5674 137.879 90.6519C138.082 90.7365 138.3 90.78 138.52 90.78Z" fill="#FEFEFE"/>
<path d="M138.52 90.78C138.853 90.782 139.178 90.6851 139.456 90.5017C139.734 90.3183 139.951 90.0567 140.079 89.7499C140.208 89.4431 140.243 89.105 140.179 88.7784C140.115 88.4519 139.956 88.1516 139.721 87.9156C139.487 87.6797 139.188 87.5187 138.861 87.453C138.535 87.3874 138.197 87.4201 137.889 87.547C137.582 87.6738 137.319 87.8891 137.134 88.1656C136.949 88.4421 136.85 88.7673 136.85 89.1C136.849 89.3201 136.891 89.5384 136.974 89.7421C137.058 89.9459 137.18 90.1312 137.336 90.2873C137.491 90.4435 137.675 90.5674 137.879 90.6519C138.082 90.7365 138.3 90.78 138.52 90.78Z" stroke="black" stroke-width="0.57" stroke-linecap="round" stroke-linejoin="round"/>
<path fill-rule="evenodd" clip-rule="evenodd" d="M152.55 87.43C152.217 87.428 151.891 87.5251 151.613 87.709C151.335 87.8928 151.118 88.1551 150.99 88.4624C150.861 88.7698 150.827 89.1085 150.892 89.4353C150.956 89.7621 151.117 90.0624 151.352 90.2979C151.588 90.5335 151.888 90.6937 152.215 90.7582C152.542 90.8227 152.88 90.7886 153.188 90.6602C153.495 90.5318 153.757 90.3149 153.941 90.0371C154.125 89.7593 154.222 89.4331 154.22 89.1C154.22 88.6571 154.044 88.2323 153.731 87.9191C153.418 87.6059 152.993 87.43 152.55 87.43V87.43Z" fill="#FEFEFE"/>
<path d="M152.55 87.43C152.217 87.428 151.891 87.5251 151.613 87.709C151.335 87.8928 151.118 88.1551 150.99 88.4624C150.861 88.7698 150.827 89.1085 150.892 89.4353C150.956 89.7621 151.117 90.0624 151.352 90.2979C151.588 90.5335 151.888 90.6937 152.215 90.7582C152.542 90.8227 152.88 90.7886 153.188 90.6602C153.495 90.5318 153.757 90.3149 153.941 90.0371C154.125 89.7593 154.222 89.4331 154.22 89.1C154.22 88.6571 154.044 88.2323 153.731 87.9191C153.418 87.6059 152.993 87.43 152.55 87.43V87.43Z" stroke="black" stroke-width="0.57" stroke-linecap="round" stroke-linejoin="round"/>
<path d="M151.82 172.93C151.82 168.84 145.11 169.23 142.65 163.41" stroke="black" stroke-width="0.57" stroke-linecap="round" stroke-linejoin="round"/>
<path d="M139.15 82.62C138.491 82.5285 137.82 82.6328 137.22 82.92" stroke="black" stroke-width="0.57" stroke-miterlimit="22.93" stroke-linecap="round"/>
<path d="M151.84 82.62C152.499 82.5267 153.171 82.6311 153.77 82.92" stroke="black" stroke-width="0.57" stroke-miterlimit="22.93" stroke-linecap="round"/>
<path fill-rule="evenodd" clip-rule="evenodd" d="M165.74 102.7H137.24C136.71 102.7 136.201 102.911 135.826 103.286C135.451 103.661 135.24 104.17 135.24 104.7C135.24 105.23 135.451 105.739 135.826 106.114C136.201 106.489 136.71 106.7 137.24 106.7H165.74C166.27 106.7 166.779 106.489 167.154 106.114C167.529 105.739 167.74 105.23 167.74 104.7C167.74 104.17 167.529 103.661 167.154 103.286C166.779 102.911 166.27 102.7 165.74 102.7Z" fill="#FBCFE8"/>
<path d="M165.74 102.7H137.24C136.71 102.7 136.201 102.911 135.826 103.286C135.451 103.661 135.24 104.17 135.24 104.7C135.24 105.23 135.451 105.739 135.826 106.114C136.201 106.489 136.71 106.7 137.24 106.7H165.74C166.27 106.7 166.779 106.489 167.154 106.114C167.529 105.739 167.74 105.23 167.74 104.7C167.74 104.17 167.529 103.661 167.154 103.286C166.779 102.911 166.27 102.7 165.74 102.7Z" stroke="black" stroke-width="0.57" stroke-miterlimit="22.93" stroke-linecap="round"/>
<path d="M166.01 79.15H122.16" stroke="black" stroke-width="0.57" stroke-miterlimit="22.93" stroke-linecap="round"/>
<path fill-rule="evenodd" clip-rule="evenodd" d="M174.4 171.47L165.87 132.89C165.77 133.63 166.78 140.77 167.71 147.78C167.71 148.05 168.71 147.48 168.78 147.78C170.6 161.34 173.85 178.09 171.84 191.46C171.25 195.36 174.05 196.38 173.91 196.1C173.253 194.596 173.089 192.923 173.44 191.32C173.81 189.32 175.12 188.32 174.44 187.32L174.4 171.47Z" fill="black"/>
<path d="M174.4 171.47L165.87 132.89C165.77 133.63 166.78 140.77 167.71 147.78C167.71 148.05 168.71 147.48 168.78 147.78C170.6 161.34 173.85 178.09 171.84 191.46C171.25 195.36 174.05 196.38 173.91 196.1C173.253 194.596 173.089 192.923 173.44 191.32C173.81 189.32 175.12 188.32 174.44 187.32L174.4 171.47Z" stroke="black" stroke-width="0.57" stroke-miterlimit="22.93" stroke-linecap="round"/>
<path fill-rule="evenodd" clip-rule="evenodd" d="M130.33 127.3C129.08 131.03 124.91 141.3 125.19 149.36C125.39 155.18 126.19 158.04 128.39 165.14C129.97 170.29 129.94 175.54 130.06 172.4C130.4 163.67 125.91 155.11 126.19 147.78C126.563 140.788 127.958 133.888 130.33 127.3Z" fill="black"/>
<path d="M130.33 127.3C129.08 131.03 124.91 141.3 125.19 149.36C125.39 155.18 126.19 158.04 128.39 165.14C129.97 170.29 129.94 175.54 130.06 172.4C130.4 163.67 125.91 155.11 126.19 147.78C126.563 140.788 127.958 133.888 130.33 127.3Z" stroke="black" stroke-width="0.57" stroke-miterlimit="22.93" stroke-linecap="round"/>
<path fill-rule="evenodd" clip-rule="evenodd" d="M136.84 106.65L136.41 108.42C141.965 107.522 147.568 106.954 153.19 106.72L136.84 106.65Z" fill="black"/>
<path d="M136.84 106.65L136.41 108.42C141.965 107.522 147.568 106.954 153.19 106.72L136.84 106.65Z" stroke="black" stroke-width="0.57" stroke-miterlimit="22.93" stroke-linecap="round"/>
<path fill-rule="evenodd" clip-rule="evenodd" d="M131.16 241.58L130.72 243.34C136.28 242.455 141.886 241.887 147.51 241.64L131.16 241.58Z" fill="black"/>
<path d="M131.16 241.58L130.72 243.34C136.28 242.455 141.886 241.887 147.51 241.64L131.16 241.58Z" stroke="black" stroke-width="0.57" stroke-miterlimit="22.93" stroke-linecap="round"/>
<path fill-rule="evenodd" clip-rule="evenodd" d="M152.12 241.58L151.68 243.34C157.24 242.454 162.846 241.887 168.47 241.64L152.12 241.58Z" fill="black"/>
<path d="M152.12 241.58L151.68 243.34C157.24 242.454 162.846 241.887 168.47 241.64L152.12 241.58Z" stroke="black" stroke-width="0.57" stroke-miterlimit="22.93" stroke-linecap="round"/>
<path fill-rule="evenodd" clip-rule="evenodd" d="M137.69 79.08L137.26 80.85C142.802 79.9536 148.391 79.3859 154 79.15L137.69 79.08Z" fill="black"/>
<path d="M137.69 79.08L137.26 80.85C142.802 79.9536 148.391 79.3859 154 79.15L137.69 79.08Z" stroke="black" stroke-width="0.57" stroke-miterlimit="22.93" stroke-linecap="round"/>
<path d="M142.72 90.83C142.698 91.175 142.747 91.5207 142.865 91.8459C142.982 92.1711 143.164 92.4689 143.401 92.7208C143.637 92.9728 143.923 93.1736 144.24 93.3109C144.557 93.4482 144.899 93.519 145.245 93.519C145.591 93.519 145.933 93.4482 146.25 93.3109C146.567 93.1736 146.853 92.9728 147.089 92.7208C147.326 92.4689 147.508 92.1711 147.625 91.8459C147.743 91.5207 147.792 91.175 147.77 90.83" stroke="black" stroke-width="0.57" stroke-miterlimit="22.93" stroke-linecap="round"/>
<path fill-rule="evenodd" clip-rule="evenodd" d="M138.52 89.1C138.469 89.1026 138.42 89.1248 138.385 89.162C138.35 89.1992 138.33 89.2487 138.33 89.3C138.332 89.3496 138.353 89.3966 138.388 89.4317C138.423 89.4668 138.47 89.4876 138.52 89.49C138.57 89.49 138.619 89.47 138.654 89.4344C138.69 89.3987 138.71 89.3504 138.71 89.3C138.711 89.2742 138.707 89.2484 138.699 89.2242C138.69 89.2 138.676 89.1779 138.658 89.1591C138.64 89.1404 138.619 89.1255 138.595 89.1154C138.571 89.1052 138.546 89.1 138.52 89.1V89.1Z" fill="black"/>
<path d="M138.52 89.1C138.469 89.1026 138.42 89.1248 138.385 89.162C138.35 89.1992 138.33 89.2487 138.33 89.3C138.332 89.3496 138.353 89.3966 138.388 89.4317C138.423 89.4668 138.47 89.4876 138.52 89.49C138.57 89.49 138.619 89.47 138.654 89.4344C138.69 89.3987 138.71 89.3504 138.71 89.3C138.711 89.2742 138.707 89.2484 138.699 89.2242C138.69 89.2 138.676 89.1779 138.658 89.1591C138.64 89.1404 138.619 89.1255 138.595 89.1154C138.571 89.1052 138.546 89.1 138.52 89.1V89.1Z" stroke="black" stroke-width="0.57" stroke-linecap="round" stroke-linejoin="round"/>
<path fill-rule="evenodd" clip-rule="evenodd" d="M152.74 89.49C152.791 89.4874 152.84 89.4652 152.875 89.428C152.91 89.3908 152.93 89.3414 152.93 89.29C152.928 89.2404 152.907 89.1935 152.872 89.1583C152.837 89.1232 152.79 89.1024 152.74 89.1C152.69 89.1 152.641 89.12 152.606 89.1557C152.57 89.1913 152.55 89.2396 152.55 89.29C152.549 89.3158 152.553 89.3416 152.561 89.3658C152.57 89.39 152.584 89.4122 152.602 89.4309C152.62 89.4496 152.641 89.4645 152.665 89.4746C152.689 89.4848 152.714 89.49 152.74 89.49V89.49Z" fill="black"/>
<path d="M152.74 89.49C152.791 89.4874 152.84 89.4652 152.875 89.428C152.91 89.3908 152.93 89.3414 152.93 89.29C152.928 89.2404 152.907 89.1935 152.872 89.1583C152.837 89.1232 152.79 89.1024 152.74 89.1C152.69 89.1 152.641 89.12 152.606 89.1557C152.57 89.1913 152.55 89.2396 152.55 89.29C152.549 89.3158 152.553 89.3416 152.561 89.3658C152.57 89.39 152.584 89.4122 152.602 89.4309C152.62 89.4496 152.641 89.4645 152.665 89.4746C152.689 89.4848 152.714 89.49 152.74 89.49V89.49Z" stroke="black" stroke-width="0.57" stroke-linecap="round" stroke-linejoin="round"/>
<path d="M151.79 241.61V172.81" stroke="black" stroke-width="0.57" stroke-miterlimit="22.93" stroke-linecap="round"/>
<path fill-rule="evenodd" clip-rule="evenodd" d="M181.4 196.52C182.09 196.34 179.88 201.97 180.24 203.01C180.94 205.01 183.93 203.11 184.49 202.2C184.77 201.75 188.49 204.8 188.74 196.69C188.82 194.12 187.03 184.54 186.84 181.07C185.97 165.07 180.23 125.25 166.92 108.5C165.92 107.25 165.07 108.09 164.25 108.28C162.94 108.59 161.75 109.4 160.47 113.93C159.12 118.72 161.3 130.24 165.42 132.93C168.52 147.39 173.32 165 173.98 179.86C174.13 183.04 174.5 185.28 173.98 187.12C173.55 188.67 172.33 189.76 171.54 192.67C171 194.67 173.84 199.42 175.33 198.75C176.33 198.31 176.55 197.59 177.6 194.23C177.87 193.39 179.14 190.12 179.73 189.84C181.07 189.1 181.62 194.56 181.39 196.56" fill="#FBCFE8"/>
<path d="M181.44 195.37C181.478 197.5 181.062 199.613 180.22 201.57C179.67 202.94 180.54 203.57 181.54 203.64C182.94 203.79 184.03 202.79 185.08 199.99C185.869 197.597 186.179 195.072 185.99 192.56C185.87 191.12 187.7 190.77 187.54 188.56C186.3 177.91 184.83 135.79 167.29 108.24" stroke="black" stroke-width="0.57" stroke-linecap="round" stroke-linejoin="round"/>
<path d="M181.4 196.52C181.63 194.52 181.08 189.06 179.74 189.8C179.15 190.08 177.88 193.35 177.61 194.19C177.19 195.53 177.07 197.11 176.76 197.84C175.68 200.28 172.46 197.11 171.93 194.92C170.93 190.71 173.81 187.61 173.99 187.08C174.62 185.25 174.08 182.08 173.99 179.82C173.33 164.96 168.53 147.35 165.43 132.89" stroke="black" stroke-width="0.57" stroke-linecap="round" stroke-linejoin="round"/>
<path fill-rule="evenodd" clip-rule="evenodd" d="M181.26 190.9C182.13 193.9 181.26 202.35 178.5 204C177.16 204.8 175.37 204.17 175.17 203.29C174.67 201.16 175.82 200.61 176.39 197.52C176.858 194.836 176.888 192.094 176.48 189.4C176.1 187.33 178.76 185.88 180.7 189.6C180.943 190.007 181.131 190.444 181.26 190.9V190.9Z" fill="#FBCFE8"/>
<path d="M181.26 190.9C182.13 193.9 181.26 202.35 178.5 204C177.16 204.8 175.37 204.17 175.17 203.29C174.67 201.16 175.82 200.61 176.39 197.52C176.858 194.836 176.888 192.094 176.48 189.4C176.1 187.33 178.76 185.88 180.7 189.6C180.943 190.007 181.131 190.444 181.26 190.9V190.9Z" stroke="black" stroke-width="0.57" stroke-miterlimit="22.93" stroke-linecap="round"/>
<path d="M187.12 185.1C187.02 185.65 188.99 192.47 188.6 197.27C188.38 199.94 186.75 203.4 184.49 202.2" stroke="black" stroke-width="0.57" stroke-miterlimit="22.93" stroke-linecap="round"/>
<path fill-rule="evenodd" clip-rule="evenodd" d="M179.4 183.79C178.334 183.847 177.332 184.318 176.607 185.102C175.882 185.886 175.492 186.923 175.52 187.99C175.482 188.512 175.549 189.037 175.717 189.533C175.885 190.028 176.151 190.486 176.499 190.877C176.846 191.269 177.269 191.586 177.741 191.812C178.214 192.037 178.727 192.166 179.25 192.19C180.316 192.133 181.318 191.662 182.043 190.878C182.768 190.094 183.158 189.057 183.13 187.99C183.167 187.468 183.099 186.944 182.93 186.449C182.761 185.954 182.496 185.497 182.148 185.106C181.801 184.715 181.379 184.397 180.907 184.171C180.435 183.945 179.923 183.815 179.4 183.79Z" fill="#FBCFE8"/>
<path fill-rule="evenodd" clip-rule="evenodd" d="M186.07 184.5C185.26 184.5 182.25 191.9 185.19 192.19C188.13 192.48 186.34 197.19 187.19 197.19C188.04 197.19 188.19 194.55 188.19 193.33C188.19 192.11 186.89 184.48 186.07 184.48" fill="#FBCFE8"/>
<path d="M176.62 191.47C176.62 190.6 175.87 190.33 175.73 191.65C175.619 192.799 175.909 193.951 176.55 194.91" stroke="black" stroke-width="0.57" stroke-miterlimit="22.93" stroke-linecap="round"/>
<path fill-rule="evenodd" clip-rule="evenodd" d="M106.77 32.72H82.77C76.5616 32.7464 70.6154 35.2264 66.2281 39.6193C61.8408 44.0122 59.3684 49.9615 59.35 56.17V56.17C59.3685 62.3863 61.8461 68.3427 66.2417 72.7383C70.6373 77.1339 76.5937 79.6115 82.81 79.63H101.37C102.19 81.54 104.5 83.63 107.07 84.8C112.79 87.43 119.9 86.26 117.07 85.06C113.67 83.63 113 81.06 113.89 78.52C118.629 77.0021 122.766 74.0214 125.705 70.0058C128.644 65.9902 130.236 61.1464 130.25 56.17V56.17C130.232 49.9512 127.751 43.9928 123.351 39.5982C118.95 35.2036 112.989 32.7305 106.77 32.72V32.72Z" fill="#373435"/>
<path d="M106.77 32.72H82.77C76.5616 32.7464 70.6154 35.2264 66.2281 39.6193C61.8408 44.0122 59.3684 49.9615 59.35 56.17V56.17C59.3685 62.3863 61.8461 68.3427 66.2417 72.7383C70.6373 77.1339 76.5937 79.6115 82.81 79.63H101.37C102.19 81.54 104.5 83.63 107.07 84.8C112.79 87.43 119.9 86.26 117.07 85.06C113.67 83.63 113 81.06 113.89 78.52C118.629 77.0021 122.766 74.0214 125.705 70.0058C128.644 65.9902 130.236 61.1464 130.25 56.17V56.17C130.232 49.9512 127.751 43.9928 123.351 39.5982C118.95 35.2036 112.989 32.7305 106.77 32.72V32.72Z" stroke="#373435" stroke-width="0.57" stroke-miterlimit="22.93" stroke-linecap="round"/>
<path d="M81.44 57.88C87.18 52.27 89.34 43.98 86.3 48.07C84.81 50.07 81.3 61.9 81.68 61.07C82.58 59.07 87.32 51.29 85.98 58.33C85.39 61.45 85.89 61.9 88.54 59.39C93.41 54.78 88.88 51.88 88.62 60.32C88.55 62.45 92.57 60.38 94.36 57.79C99.9 49.79 97.22 44.6 94.15 56.26C92.04 64.26 98.61 61.9 102.05 52.19C104.23 46.06 100.51 49.98 99.14 55.46C98.92 56.35 98.14 61.34 100.34 60.56C101.25 60.24 101.82 58.29 101.77 59.85C101.71 61.85 104.96 58.64 105.23 56.41C105.95 50.55 100.23 58.93 102.97 58.8C104.32 58.74 105.97 58.41 106.44 56.8" stroke="#FEFEFE" stroke-width="0.57" stroke-miterlimit="22.93" stroke-linecap="round"/>
</svg>
